#!OML:ASF I:\golf\golf\golf 2\Subject 1\2002-09-07\Subject1.ASF
:FULLY-SPECIFIED
:DEGREES
304
root -5.24395 17.9581 -3.49802 -167.2 -5.62606 -173.563
lowerback -9.08153 16.908 14.8114
upperback -15.3306 19.3158 0.972197
thorax -7.62833 7.0449 -5.06695
lowerneck -7.49555 -19.9451 -2.73342
upperneck 6.5147 -26.947 2.67487
head 4.20678 -13.3315 -0.455301
rclavicle -2.16278e-013 -1.9958e-013
rhumerus 115.223 26.4805 -47.9991
rradius 72.4107
rwrist 10.4511
rhand -38.9388 29.9891
rfingers 7.12502
rthumb -11.9446 0.349842
lclavicle -2.16278e-013 -1.9958e-013
lhumerus 73.0067 26.0614 71.9201
lradius 88.9294
lwrist 25.7981
lhand -29.7991 13.1205
lfingers 7.12502
lthumb -183.123 223.077
rfemur 20.6377 -11.6061 22.771
rtibia 5.44732
rfoot 35.4071 -21.9111
rtoes 12.153
lfemur -30.9204 -24.0135 -9.24614
ltibia 30.5357
lfoot 33.9154 -45.3066
ltoes 53.2211
305
root -5.24653 17.9566 -3.51622 -167.183 -5.84012 -173.753
lowerback -9.29195 16.8994 14.6101
upperback -15.3846 19.2724 0.816254
thorax -7.58413 7.04182 -5.10028
lowerneck -7.52158 -19.9781 -2.929
upperneck 6.64794 -26.9675 2.61904
head 4.28153 -13.3436 -0.467701
rclavicle 1.04561e-013 1.23246e-013
rhumerus 115.187 26.39 -48.0993
rradius 72.7283
rwrist 10.3651
rhand -39.4731 30.9302
rfingers 7.12502
rthumb -12.4598 1.32158
lclavicle 1.04561e-013 1.23246e-013
lhumerus 73.2336 26.2642 71.7969
lradius 89.0226
lwrist 24.8239
lhand -30.2549 13.1165
lfingers 7.12502
lthumb -183.564 223.066
rfemur 20.6556 -11.6685 22.5272
rtibia 5.56484
rfoot 36.1925 -20.8991
rtoes 12.1925
lfemur -30.8553 -23.9337 -9.51441
ltibia 30.4602
lfoot 34.463 -45.3567
ltoes 53.2868
306
root -5.24868 17.9512 -3.52969 -167.175 -5.96752 -173.993
lowerback -9.45621 16.8776 14.3636
upperback -15.4061 19.2302 0.678802
thorax -7.54486 7.04836 -5.10459
lowerneck -7.63644 -19.9855 -3.01907
upperneck 6.77103 -26.9497 2.5
head 4.34148 -13.3357 -0.512971
rclavicle 6.55989e-014 3.02153e-014
rhumerus 115.086 26.2973 -48.1333
rradius 73.1502
rwrist 10.2394
rhand -40.2442 31.6464
rfingers 7.12502
rthumb -13.2031 2.08445
lclavicle 6.55989e-014 3.02153e-014
lhumerus 73.3147 26.5247 71.5384
lradius 89.1313
lwrist 23.8919
lhand -30.6438 13.1483
lfingers 7.12502
lthumb -183.939 223.092
rfemur 20.7259 -11.6552 22.2037
rtibia 5.59059
rfoot 36.3768 -20.5005
rtoes 12.8388
lfemur -30.7609 -23.8121 -9.84893
ltibia 30.3901
lfoot 34.8317 -45.526
ltoes 53.1001
307
root -5.25198 17.9489 -3.54168 -167.118 -6.1148 -174.033
lowerback -9.6732 16.8981 14.3326
upperback -15.4268 19.2071 0.579276
thorax -7.42995 7.04434 -5.14111
lowerneck -7.76487 -19.945 -2.9565
upperneck 6.74039 -26.8569 2.31464
head 4.3111 -13.2925 -0.572687
rclavicle 3.53837e-014 5.64548e-014
rhumerus 114.922 26.1967 -48.1146
rradius 73.5865
rwrist 10.1873
rhand -41.1001 32.2514
rfingers 7.12502
rthumb -14.0281 2.74481
lclavicle 3.53837e-014 5.64548e-014
lhumerus 73.3337 26.8006 71.2193
lradius 89.1574
lwrist 23.1499
lhand -30.8559 12.7942
lfingers 7.12502
lthumb -184.144 222.734
rfemur 20.6534 -11.6274 22.1254
rtibia 5.68333
rfoot 36.544 -20.0125
rtoes 12.8182
lfemur -30.7608 -23.6302 -9.93597
ltibia 30.3125
lfoot 35.3014 -45.7355
ltoes 53.027
308
root -5.25724 17.9493 -3.55348 -167.058 -6.25397 -174.121
lowerback -9.86604 16.9323 14.3105
upperback -15.4551 19.2108 0.434048
thorax -7.31347 7.05252 -5.22912
lowerneck -7.80005 -19.9035 -2.85648
upperneck 6.56041 -26.7681 2.18774
head 4.21305 -13.2524 -0.597704
rclavicle -2.8625e-014 1.35174e-014
rhumerus 114.7 26.1112 -48.135
rradius 73.9132
rwrist 10.3128
rhand -41.8853 32.6342
rfingers 7.12502
rthumb -14.7846 3.18155
lclavicle -2.8625e-014 1.35174e-014
lhumerus 73.4317 26.9494 70.9175
lradius 88.9702
lwrist 22.3303
lhand -31.4408 12.2829
lfingers 7.12502
lthumb -184.709 222.211
rfemur 20.5366 -11.6083 22.0111
rtibia 5.8527
rfoot 36.9095 -19.033
rtoes 11.3192
lfemur -30.7579 -23.4219 -10.0993
ltibia 30.2203
lfoot 35.8737 -45.9077
ltoes 53.1159
309
root -5.26314 17.9462 -3.56343 -167.053 -6.3316 -174.357
lowerback -9.98276 16.901 14.154
upperback -15.4812 19.1603 0.287999
thorax -7.27925 7.04313 -5.29301
lowerneck -7.73505 -19.8363 -2.82331
upperneck 6.4468 -26.6706 2.18163
head 4.15135 -13.2069 -0.577873
rclavicle 6.91771e-014 8.18993e-014
rhumerus 114.485 26.1101 -48.2595
rradius 74.1529
rwrist 10.3539
rhand -42.6694 33.017
rfingers 7.12502
rthumb -15.5399 3.62138
lclavicle 6.91771e-014 8.18993e-014
lhumerus 73.4464 27.0098 70.5991
lradius 88.7517
lwrist 21.1621
lhand -31.5986 12.2372
lfingers 7.12502
lthumb -184.861 222.161
rfemur 20.5381 -11.5634 21.7249
rtibia 5.99099
rfoot 37.1012 -18.5432
rtoes 10.9823
lfemur -30.6495 -23.2552 -10.4579
ltibia 30.1117
lfoot 36.3554 -46.0295
ltoes 53.2182
310
root -5.26814 17.942 -3.57164 -167.033 -6.34756 -174.621
lowerback -10.095 16.859 13.9546
upperback -15.4943 19.0993 0.159353
thorax -7.25172 7.03315 -5.32317
lowerneck -7.75613 -19.7574 -2.87208
upperneck 6.49719 -26.564 2.20755
head 4.18313 -13.1533 -0.564808
rclavicle 1.02175e-013 8.26944e-014
rhumerus 114.294 26.1101 -48.3873
rradius 74.317
rwrist 10.1878
rhand -43.3501 33.6262
rfingers 7.12502
rthumb -16.1955 4.28274
lclavicle 1.02175e-013 8.26944e-014
lhumerus 73.3775 27.1038 70.3032
lradius 88.572
lwrist 20.0188
lhand -30.9728 12.3414
lfingers 7.12502
lthumb -184.257 222.279
rfemur 20.5941 -11.4671 21.4145
rtibia 6.00172
rfoot 36.9318 -19.0652
rtoes 12.5869
lfemur -30.5428 -23.1837 -10.8012
ltibia 29.99
lfoot 36.931 -45.8185
ltoes 53.5137
311
root -5.27081 17.9421 -3.58174 -166.969 -6.31298 -174.739
lowerback -10.2574 16.9132 13.8526
upperback -15.5116 19.1376 0.0654526
thorax -7.17319 7.06314 -5.32668
lowerneck -7.79704 -19.7316 -3.0587
upperneck 6.56186 -26.5153 2.26444
head 4.25087 -13.127 -0.538728
rclavicle 3.97569e-014 1.66979e-014
rhumerus 114.052 26.0868 -48.4533
rradius 74.3509
rwrist 9.96443
rhand -43.7515 34.2164
rfingers 7.12502
rthumb -16.582 4.90486
lclavicle 3.97569e-014 1.66979e-014
lhumerus 73.2147 27.1724 69.9562
lradius 88.3558
lwrist 19.3638
lhand -30.7436 12.2126
lfingers 7.12502
lthumb -184.036 222.154
rfemur 20.6072 -11.3041 21.2966
rtibia 5.91574
rfoot 36.9835 -19.1233
rtoes 12.8246
lfemur -30.5013 -23.0919 -10.9393
ltibia 29.8703
lfoot 37.4973 -45.4672
ltoes 53.8716
